<?xml version="1.0" encoding="utf-8"?>
<!-- Generator: Adobe Illustrator 26.0.3, SVG Export Plug-In . SVG Version: 6.00 Build 0)  -->
<svg version="1.1" id="Ebene_1" focusable="false" xmlns="http://www.w3.org/2000/svg" xmlns:xlink="http://www.w3.org/1999/xlink" x="0px" y="0px" viewBox="0 0 24 24" style="enable-background:new 0 0 24 24;" xml:space="preserve">
	<style type="text/css">
	.st0{fill:#FFDFC4;}
	.st1{fill:#FF973E;}
</style>
	<circle id="Ellipse_647" class="st0" cx="3.2" cy="7.8" r="1.2" />
	<circle id="Ellipse_648" class="st0" cx="20.8" cy="11.2" r="1.2" />
	<circle id="Ellipse_649" class="st0" cx="19.2" cy="15.2" r="0.8" />
	<g id="Icon_ionic-md-rocket" transform="translate(2.013 -1.125)">
		<path id="Pfad_7041" class="st1" d="M9.3,18.5c-0.5,0-0.9-0.1-1.3-0.3c-0.1-0.1-0.3,0-0.3,0.1c0,0,0,0.1,0,0.1L7.7,20
		c0,0.1,0.1,0.1,0.1,0.1c0,0,0,0,0.1,0l0.4-0.3c0.1,0,0.1,0,0.2,0c0,0,0,0,0,0l0.6,1c0,0.1,0.1,0.1,0.2,0c0,0,0,0,0,0l0.6-1
		c0-0.1,0.1-0.1,0.2,0c0,0,0,0,0,0l0.4,0.3c0.1,0,0.1,0,0.2,0c0,0,0,0,0-0.1l0.1-1.5c0-0.1-0.1-0.2-0.2-0.3c0,0-0.1,0-0.1,0
		C10.1,18.4,9.7,18.5,9.3,18.5z" />
		<path id="Pfad_7042" class="st1" d="M13.5,14.6l-1.5-1.5c0-4.8-2.8-6.9-2.8-6.9s-2.8,2.1-2.8,6.9L5,14.6c-0.1,0.1-0.1,0.1-0.1,0.2
		l0.6,3.4c0,0.1,0.1,0.2,0.3,0.2c0,0,0.1,0,0.1,0l2-1.4c0.4,0.4,0.9,0.6,1.4,0.6c0.5,0,1-0.2,1.4-0.6l2,1.4c0.1,0.1,0.3,0,0.3-0.1
		c0,0,0-0.1,0-0.1l0.6-3.4C13.6,14.8,13.6,14.7,13.5,14.6z M9.3,11.6c-0.5,0-1-0.4-1-0.9c0-0.5,0.4-1,0.9-1c0.5,0,1,0.4,1,0.9
		c0,0,0,0,0,0C10.2,11.1,9.8,11.6,9.3,11.6C9.3,11.6,9.3,11.6,9.3,11.6L9.3,11.6z" />
	</g>
</svg>
