<svg id="Ebene_1" data-name="Ebene 1" xmlns="http://www.w3.org/2000/svg" viewBox="0 0 225.7 51.05"><defs><style>.cls-1,.cls-2,.cls-3{fill:#fff;}.cls-2{fill-rule:evenodd;}.cls-3{font-size:8px;font-family:MavenProRegular, Maven Pro;}.cls-4{letter-spacing:-0.01em;}.cls-5{letter-spacing:-0.02em;}.cls-6{letter-spacing:-0.03em;}.cls-7{letter-spacing:-0.01em;}.cls-8{letter-spacing:-0.01em;}.cls-9{letter-spacing:-0.03em;}</style></defs><path class="cls-1" d="M53,28.28h2.4l6.7,17.6,6.8-17.6h2.4l-8,20.9h-2.2Z" transform="translate(-2.81 -10.24)"/><path class="cls-1" d="M72.51,44.38a4.06,4.06,0,0,1,.4-1.9,5,5,0,0,1,1-1.4c.4-.3.9-.6,1.4-.9s1.1-.4,1.5-.5,1-.2,1.6-.3a7.77,7.77,0,0,1,1.3-.1h.9l2.5.1a3.51,3.51,0,0,0-1.2-3,5.51,5.51,0,0,0-3.4-.9,13.46,13.46,0,0,0-4.6.7V34a15,15,0,0,1,4.7-.8,6.86,6.86,0,0,1,5,1.7,6.61,6.61,0,0,1,1.7,4.9v4.7a4.41,4.41,0,0,1-.7,2.6,4.28,4.28,0,0,1-1.8,1.5c-.7.3-1.4.5-2,.7a12.25,12.25,0,0,1-1.9.2,7.57,7.57,0,0,1-1.5-.1,13.64,13.64,0,0,1-1.7-.4,8.86,8.86,0,0,1-1.7-.8,3.09,3.09,0,0,1-1.2-1.5A18.1,18.1,0,0,1,72.51,44.38Zm2.3,0c0,1.9,1.4,2.9,4.2,2.9h0c2.8,0,4.1-.9,4.1-2.8v-3a9.81,9.81,0,0,0-2.7-.2C76.61,41.28,74.81,42.28,74.81,44.38Z" transform="translate(-2.81 -10.24)"/><path class="cls-1" d="M89.91,49.18V27.58h2.3v21.6Z" transform="translate(-2.81 -10.24)"/><path class="cls-1" d="M97.11,30.78v-2.5h2.5v2.5Zm.1,18.4h2.3V33.48h-2.3Z" transform="translate(-2.81 -10.24)"/><path class="cls-1" d="M103.41,41.08a11,11,0,0,1,.6-3.9,5,5,0,0,1,1.7-2.4,7,7,0,0,1,2.3-1.1,10.07,10.07,0,0,1,2.5-.3,12.26,12.26,0,0,1,3.9.6v-6.3h2.3v16.9a6.88,6.88,0,0,1-.2,1.3,5.89,5.89,0,0,1-.8,1.6,4.58,4.58,0,0,1-2,1.5,8.8,8.8,0,0,1-3.5.6,9.85,9.85,0,0,1-1.7-.2,4.49,4.49,0,0,1-1.8-.7,7.46,7.46,0,0,1-1.7-1.4,6.74,6.74,0,0,1-1.2-2.4A15.29,15.29,0,0,1,103.41,41.08Zm2.2,0a10.64,10.64,0,0,0,.4,3.3,3.9,3.9,0,0,0,1.2,1.9,7,7,0,0,0,1.4.8,7.77,7.77,0,0,0,1.6.2c2.8,0,4.1-.9,4.1-2.8v-8.4a10.87,10.87,0,0,0-3.9-.8,4.67,4.67,0,0,0-3.7,1.4A7.27,7.27,0,0,0,105.61,41.08Z" transform="translate(-2.81 -10.24)"/><path class="cls-1" d="M121.21,30.78v-2.5h2.5v2.5Zm.2,18.4h2.3V33.48h-2.3Z" transform="translate(-2.81 -10.24)"/><path class="cls-1" d="M127,35.58v-2.1h2.7v-4.4H132v4.4h4v2.1h-4v9.5a2.46,2.46,0,0,0,.5,1.7,2.46,2.46,0,0,0,1.7.5,3.92,3.92,0,0,0,1.8-.4V49a7.11,7.11,0,0,1-2,.4h-.1a4.87,4.87,0,0,1-1.2-.1,11.22,11.22,0,0,1-1.3-.5,2.81,2.81,0,0,1-1.2-1.4,5.36,5.36,0,0,1-.5-2.4v-9.4Z" transform="translate(-2.81 -10.24)"/><path class="cls-1" d="M138.41,33.48h2.4l4.4,12.4,4.5-12.4h2.4l-6.3,17.2c-1.1,3-2.8,4.5-4.9,4.5a4,4,0,0,1-1.5-.3v-2.1a3.08,3.08,0,0,0,1.3.3,1.92,1.92,0,0,0,1.2-.4,4.74,4.74,0,0,0,1-1c.2-.4.5-.8.7-1.2a3,3,0,0,0,.4-1.1l.2-.4Z" transform="translate(-2.81 -10.24)"/><path class="cls-1" d="M155.81,49.18V28.28h2.3V47h10.7v2.2Z" transform="translate(-2.81 -10.24)"/><path class="cls-1" d="M171.21,44.38a4.06,4.06,0,0,1,.4-1.9,5,5,0,0,1,1-1.4c.4-.3.9-.6,1.4-.9s1.1-.4,1.5-.5,1-.2,1.6-.3a7.77,7.77,0,0,1,1.3-.1h.9l2.5.1a3.51,3.51,0,0,0-1.2-3,5.51,5.51,0,0,0-3.4-.9,13.46,13.46,0,0,0-4.6.7V34a15,15,0,0,1,4.7-.8,6.86,6.86,0,0,1,5,1.7,6.61,6.61,0,0,1,1.7,4.9v4.7a4.41,4.41,0,0,1-.7,2.6,4.28,4.28,0,0,1-1.8,1.5c-.7.3-1.4.5-2,.7a12.25,12.25,0,0,1-1.9.2,7.57,7.57,0,0,1-1.5-.1,13.64,13.64,0,0,1-1.7-.4,8.86,8.86,0,0,1-1.7-.8,3.09,3.09,0,0,1-1.2-1.5A9.08,9.08,0,0,1,171.21,44.38Zm2.2,0c0,1.9,1.4,2.9,4.2,2.9h0c2.8,0,4.1-.9,4.1-2.8v-3a19.1,19.1,0,0,0-2.8-.2C175.31,41.28,173.41,42.28,173.41,44.38Z" transform="translate(-2.81 -10.24)"/><path class="cls-1" d="M188.11,44.48V27.58h2.3v6.3a12.09,12.09,0,0,1,3.8-.6,12.31,12.31,0,0,1,2,.2,7.31,7.31,0,0,1,1.9.7,7.46,7.46,0,0,1,1.7,1.4,6.16,6.16,0,0,1,1.1,2.3,11.49,11.49,0,0,1,.4,3.3,12.5,12.5,0,0,1-.5,3.6,6.74,6.74,0,0,1-1.2,2.4,5.79,5.79,0,0,1-1.7,1.4,6,6,0,0,1-1.8.7,9.85,9.85,0,0,1-1.7.2,9.48,9.48,0,0,1-3-.4,5.58,5.58,0,0,1-1.9-1,4.12,4.12,0,0,1-1-1.3,4.28,4.28,0,0,1-.5-1.3A1.8,1.8,0,0,0,188.11,44.48Zm2.3.1c0,1.8,1.4,2.7,4.1,2.7a7.77,7.77,0,0,0,1.6-.2,3.68,3.68,0,0,0,1.5-.8,3.9,3.9,0,0,0,1.2-1.9,10.64,10.64,0,0,0,.4-3.3,6.61,6.61,0,0,0-1.2-4.4,4.76,4.76,0,0,0-3.8-1.4,10,10,0,0,0-3.8.8Z" transform="translate(-2.81 -10.24)"/><path class="cls-1" d="M204.91,37.78a4.48,4.48,0,0,1,1.4-3.2,5.72,5.72,0,0,1,4.2-1.3,9.68,9.68,0,0,1,4,.9v2.2a7.3,7.3,0,0,0-3.8-1.1c-2.4,0-3.5.8-3.5,2.4a1.48,1.48,0,0,0,.9,1.3,10.23,10.23,0,0,0,2.1.8,24.13,24.13,0,0,1,2.5.8,4.57,4.57,0,0,1,2.1,1.6,4.28,4.28,0,0,1,.9,2.8,3.8,3.8,0,0,1-1.5,3.2,6.56,6.56,0,0,1-4.2,1.2,9.39,9.39,0,0,1-4.7-1.2v-2.4a8.82,8.82,0,0,0,4.6,1.4c2.4,0,3.6-.7,3.6-2.2a2,2,0,0,0-.9-1.8,6.81,6.81,0,0,0-2.1-1c-.8-.2-1.7-.5-2.5-.7a5.71,5.71,0,0,1-2.1-1.3A3,3,0,0,1,204.91,37.78Z" transform="translate(-2.81 -10.24)"/><path class="cls-1" d="M10.71,40.58A1.37,1.37,0,0,0,9.31,42v1.6a1.37,1.37,0,0,0,1.4,1.4h1.7a1.37,1.37,0,0,0,1.4-1.4V42a1.37,1.37,0,0,0-1.4-1.4Z" transform="translate(-2.81 -10.24)"/><path class="cls-1" d="M43.21,32.58a1.37,1.37,0,0,0-1.4,1.4v1.6a1.37,1.37,0,0,0,1.4,1.4h1.7a1.37,1.37,0,0,0,1.4-1.4V34a1.37,1.37,0,0,0-1.4-1.4Z" transform="translate(-2.81 -10.24)"/><path class="cls-1" d="M17.11,24.48a1.37,1.37,0,0,0-1.4,1.4v1.6a1.37,1.37,0,0,0,1.4,1.4h1.7a1.37,1.37,0,0,0,1.4-1.4v-1.6a1.37,1.37,0,0,0-1.4-1.4Z" transform="translate(-2.81 -10.24)"/><path class="cls-1" d="M23.71,32.48a1.37,1.37,0,0,0-1.4,1.4v1.6a1.37,1.37,0,0,0,1.4,1.4h1.7a1.37,1.37,0,0,0,1.4-1.4v-1.6a1.37,1.37,0,0,0-1.4-1.4Z" transform="translate(-2.81 -10.24)"/><path class="cls-1" d="M17.11,40.58a1.37,1.37,0,0,0-1.4,1.4v1.6a1.37,1.37,0,0,0,1.4,1.4h1.7a1.37,1.37,0,0,0,1.4-1.4V42a1.37,1.37,0,0,0-1.4-1.4Z" transform="translate(-2.81 -10.24)"/><path class="cls-1" d="M10.71,32.58A1.37,1.37,0,0,0,9.31,34v1.6a1.37,1.37,0,0,0,1.4,1.4h1.7a1.37,1.37,0,0,0,1.4-1.4V34a1.37,1.37,0,0,0-1.4-1.4Z" transform="translate(-2.81 -10.24)"/><path class="cls-1" d="M36.81,24.48a1.37,1.37,0,0,0-1.4,1.4v1.6a1.37,1.37,0,0,0,1.4,1.4h1.7a1.37,1.37,0,0,0,1.4-1.4v-1.6a1.37,1.37,0,0,0-1.4-1.4Z" transform="translate(-2.81 -10.24)"/><path class="cls-1" d="M17.11,17.28a1.37,1.37,0,0,0-1.4,1.4v1.6a1.37,1.37,0,0,0,1.4,1.4h1.7a1.37,1.37,0,0,0,1.4-1.4v-1.6a1.37,1.37,0,0,0-1.4-1.4Z" transform="translate(-2.81 -10.24)"/><path class="cls-1" d="M36.81,47.78a1.37,1.37,0,0,0-1.4,1.4v1.6a1.37,1.37,0,0,0,1.4,1.4h1.7a1.37,1.37,0,0,0,1.4-1.4v-1.6a1.37,1.37,0,0,0-1.4-1.4Z" transform="translate(-2.81 -10.24)"/><path class="cls-1" d="M4.21,32.48a1.37,1.37,0,0,0-1.4,1.4v1.6a1.37,1.37,0,0,0,1.4,1.4h1.7a1.37,1.37,0,0,0,1.4-1.4v-1.6a1.37,1.37,0,0,0-1.4-1.4Z" transform="translate(-2.81 -10.24)"/><path class="cls-1" d="M43.21,40.58a1.37,1.37,0,0,0-1.4,1.4v1.6a1.37,1.37,0,0,0,1.4,1.4h1.7a1.37,1.37,0,0,0,1.4-1.4V42a1.37,1.37,0,0,0-1.4-1.4Z" transform="translate(-2.81 -10.24)"/><path class="cls-1" d="M30.31,24.48a1.37,1.37,0,0,0-1.4,1.4v1.6a1.37,1.37,0,0,0,1.4,1.4H32a1.37,1.37,0,0,0,1.4-1.4v-1.6a1.37,1.37,0,0,0-1.4-1.4Z" transform="translate(-2.81 -10.24)"/><path class="cls-1" d="M23.71,24.48a1.37,1.37,0,0,0-1.4,1.4v1.6a1.37,1.37,0,0,0,1.4,1.4h1.7a1.37,1.37,0,0,0,1.4-1.4v-1.6a1.37,1.37,0,0,0-1.4-1.4Z" transform="translate(-2.81 -10.24)"/><path class="cls-1" d="M30.31,17.28a1.37,1.37,0,0,0-1.4,1.4v1.6a1.37,1.37,0,0,0,1.4,1.4H32a1.37,1.37,0,0,0,1.4-1.4v-1.6a1.37,1.37,0,0,0-1.4-1.4Z" transform="translate(-2.81 -10.24)"/><path class="cls-1" d="M30.21,40.58a1.37,1.37,0,0,0-1.4,1.4v1.6a1.37,1.37,0,0,0,1.4,1.4h1.7a1.37,1.37,0,0,0,1.4-1.4V42a1.37,1.37,0,0,0-1.4-1.4Z" transform="translate(-2.81 -10.24)"/><path class="cls-1" d="M36.81,32.48a1.37,1.37,0,0,0-1.4,1.4v1.6a1.37,1.37,0,0,0,1.4,1.4h1.7a1.37,1.37,0,0,0,1.4-1.4v-1.6a1.37,1.37,0,0,0-1.4-1.4Z" transform="translate(-2.81 -10.24)"/><path class="cls-1" d="M25.41,52.18a1.37,1.37,0,0,0,1.4-1.4v-1.6a1.37,1.37,0,0,0-1.4-1.4h-1.7a1.37,1.37,0,0,0-1.4,1.4v1.6a1.37,1.37,0,0,0,1.4,1.4Z" transform="translate(-2.81 -10.24)"/><path class="cls-1" d="M12.31,52.18a1.37,1.37,0,0,0,1.4-1.4v-1.6a1.37,1.37,0,0,0-1.4-1.4h-1.7a1.37,1.37,0,0,0-1.4,1.4v1.6a1.37,1.37,0,0,0,1.4,1.4Z" transform="translate(-2.81 -10.24)"/><path class="cls-2" d="M39.51,39.38H36a.81.81,0,0,0-.7.9v4.9a.81.81,0,0,0,.7.9h3.5a.81.81,0,0,0,.7-.9v-4.9A.89.89,0,0,0,39.51,39.38Zm-20-1.3a.81.81,0,0,0,.7-.9v-4.9a.81.81,0,0,0-.7-.9h-2.2a3.31,3.31,0,0,1-3.2-3.3v-3.7a.81.81,0,0,0-.7-.9H9.91a.81.81,0,0,0-.7.9v4.9a.81.81,0,0,0,.7.9h2a3.35,3.35,0,0,1,3.4,3.3v3.8a.81.81,0,0,0,.7.9l3.5-.1Zm13.3-6.7h-3.5a.81.81,0,0,0-.7.9v3.8a3.24,3.24,0,0,1-3.3,3.2h-2.1a.81.81,0,0,0-.7.9v4.9a.81.81,0,0,0,.7.9h3.5a.81.81,0,0,0,.7-.9v-3.8a3.35,3.35,0,0,1,3.1-3.2h2.3a.81.81,0,0,0,.7-.9v-4.9A.81.81,0,0,0,32.81,31.38Zm-.4,15.3h-3.5a.81.81,0,0,0-.7.9v3.8a3.44,3.44,0,0,1-3.2,3.2h-.8a3.42,3.42,0,0,1-3.4-3.3v-3.8a.81.81,0,0,0-.7-.9h-3.5a.81.81,0,0,0-.7.9v4.9a.81.81,0,0,0,.7.9h2.2a3.4,3.4,0,0,1,3.1,2.6v4.5a.81.81,0,0,0,.7.9h3.5a.81.81,0,0,0,.7-.9v-3.8l.1.1a3.33,3.33,0,0,1,3.3-3.3h2.1a.81.81,0,0,0,.7-.9v-4.9A.69.69,0,0,0,32.41,46.68Z" transform="translate(-2.81 -10.24)"/><path class="cls-1" d="M224.11,26.08v.5h-1v2.7h-.6v-2.7h-1v-.5Zm3.6,3.2-.1-1.9v-.9h0c-.1.3-.2.7-.3,1l-.6,1.8H226l-.6-1.9a2.92,2.92,0,0,1-.2-.9h0v.9l-.1,1.9h-.6l.2-3.3h1l.6,1.6c.1.3.1.5.2.8h0a3.09,3.09,0,0,0,.2-.8l.6-1.6h.9l.3,3.3Z" transform="translate(-2.81 -10.24)"/><text class="cls-3" transform="translate(49.03 6.67)"><tspan class="cls-4">p</tspan><tspan class="cls-5" x="4.48" y="0">o</tspan><tspan class="cls-6" x="8.86" y="0">w</tspan><tspan class="cls-7" x="14.92" y="0">e</tspan><tspan class="cls-8" x="19.24" y="0">r</tspan><tspan class="cls-5" x="21.89" y="0">e</tspan><tspan x="26.2" y="0">d </tspan><tspan class="cls-9" x="33.39" y="0">b</tspan><tspan x="37.72" y="0">y</tspan></text></svg>