<svg xmlns="http://www.w3.org/2000/svg" xmlns:xlink="http://www.w3.org/1999/xlink" width="27" height="20" viewBox="0 0 27 20">
  <defs>
    <clipPath id="clip-path">
      <rect id="Rechteck_34" data-name="Rechteck 34" width="27" height="20" transform="translate(0 0.319)" fill="#c4c4c4"/>
    </clipPath>
  </defs>
  <g id="discord-color-seeklogo.com-2" transform="translate(0 -0.319)" clip-path="url(#clip-path)">
    <path id="Pfad_11" data-name="Pfad 11" d="M22.13,2.063A21.557,21.557,0,0,0,16.809.413a.081.081,0,0,0-.086.04,15.017,15.017,0,0,0-.663,1.361,19.9,19.9,0,0,0-5.976,0A13.772,13.772,0,0,0,9.412.454a.084.084,0,0,0-.086-.04,21.5,21.5,0,0,0-5.321,1.65.076.076,0,0,0-.035.03A22.063,22.063,0,0,0,.108,16.973a.09.09,0,0,0,.034.061,21.678,21.678,0,0,0,6.528,3.3.085.085,0,0,0,.092-.03A15.494,15.494,0,0,0,8.1,18.132a.083.083,0,0,0-.045-.115,14.276,14.276,0,0,1-2.039-.972A.084.084,0,0,1,6,16.905c.137-.1.274-.21.4-.317a.081.081,0,0,1,.084-.011,15.46,15.46,0,0,0,13.138,0,.081.081,0,0,1,.086.01c.131.108.268.216.406.318a.084.084,0,0,1-.007.139,13.4,13.4,0,0,1-2.04.971.083.083,0,0,0-.044.116A17.4,17.4,0,0,0,19.365,20.3a.083.083,0,0,0,.092.031,21.606,21.606,0,0,0,6.538-3.3.084.084,0,0,0,.034-.06A21.918,21.918,0,0,0,22.164,2.095.066.066,0,0,0,22.13,2.063ZM8.736,14a2.513,2.513,0,0,1-2.349-2.635A2.5,2.5,0,0,1,8.736,8.733a2.485,2.485,0,0,1,2.349,2.635A2.5,2.5,0,0,1,8.736,14Zm8.686,0a2.513,2.513,0,0,1-2.349-2.635,2.5,2.5,0,0,1,2.349-2.635,2.485,2.485,0,0,1,2.349,2.635A2.492,2.492,0,0,1,17.422,14Z" transform="translate(0 -0.192)" fill="#c4c4c4"/>
  </g>
</svg>
