<svg xmlns="http://www.w3.org/2000/svg" width="25.412" height="24.777" viewBox="0 0 25.412 24.777">
  <path id="Icon_awesome-github" data-name="Icon awesome-github" d="M8.5,20.513c0,.1-.118.184-.266.184-.169.015-.287-.067-.287-.184,0-.1.118-.184.266-.184C8.366,20.313,8.5,20.395,8.5,20.513Zm-1.593-.231c-.036.1.067.22.22.251a.24.24,0,0,0,.318-.1c.031-.1-.067-.22-.22-.266A.263.263,0,0,0,6.906,20.282ZM9.171,20.2c-.149.036-.251.133-.236.251.015.1.149.169.3.133s.251-.133.236-.236S9.319,20.18,9.171,20.2ZM12.542.563A12.285,12.285,0,0,0,0,13.063,12.845,12.845,0,0,0,8.684,25.318c.656.118.886-.287.886-.62,0-.318-.015-2.07-.015-3.146,0,0-3.586.768-4.339-1.527,0,0-.584-1.491-1.424-1.875,0,0-1.173-.8.082-.789a2.7,2.7,0,0,1,1.978,1.322,2.708,2.708,0,0,0,3.735,1.071,2.847,2.847,0,0,1,.82-1.727c-2.864-.318-5.753-.733-5.753-5.661A3.883,3.883,0,0,1,5.861,9.349,4.841,4.841,0,0,1,5.994,5.87c1.071-.333,3.535,1.383,3.535,1.383a12.1,12.1,0,0,1,6.435,0S18.429,5.532,19.5,5.87a4.838,4.838,0,0,1,.133,3.479,3.982,3.982,0,0,1,1.322,3.018c0,4.944-3.018,5.338-5.882,5.661a3.03,3.03,0,0,1,.871,2.377c0,1.727-.015,3.863-.015,4.283,0,.333.236.738.886.62a12.726,12.726,0,0,0,8.6-12.245A12.562,12.562,0,0,0,12.542.563ZM4.98,18.233c-.067.051-.051.169.036.266.082.082.2.118.266.051.067-.051.051-.169-.036-.266C5.164,18.2,5.046,18.166,4.98,18.233Zm-.553-.415c-.036.067.015.149.118.2a.152.152,0,0,0,.22-.036c.036-.067-.015-.149-.118-.2C4.544,17.751,4.462,17.767,4.427,17.818Zm1.66,1.824c-.082.067-.051.22.067.318.118.118.266.133.333.051.067-.067.036-.22-.067-.318C6.307,19.575,6.153,19.56,6.086,19.642ZM5.5,18.889c-.082.051-.082.184,0,.3s.22.169.287.118a.234.234,0,0,0,0-.318C5.718,18.873,5.584,18.822,5.5,18.889Z" transform="translate(0 -0.563)" fill="#c4c4c4"/>
</svg>
