<?xml version="1.0" encoding="UTF-8" standalone="no"?>
<svg
   class="MuiSvgIcon-root MuiSvgIcon-fontSizeMedium MuiBox-root css-1om0hkc"
   focusable="false"
   viewBox="0 0 24 24"
   aria-hidden="true"
   data-testid="AccountBoxIcon"
   version="1.1"
   id="svg294"
   xmlns="http://www.w3.org/2000/svg"
   xmlns:svg="http://www.w3.org/2000/svg">
  <defs
     id="defs298" />
  <circle
     id="Ellipse_298"
     data-name="Ellipse 298"
     cx="12"
     cy="12"
     r="9"
     fill="#edfcf1"
     style="fill:#ffffff;stroke-width:0.692308" />
  <path
     id="Pfad_5786"
     data-name="Pfad 5786"
     d="m 8.0111454,13.889669 v -0.667093 h 1.6093608 l 0.6670918,0.667093 v 1.608168 H 9.6205062 Z m 2.7767726,-0.667093 0.501511,-0.501512 0.714742,-0.714742 0.714742,0.714742 0.50151,0.501512 v 2.275261 H 10.789109 Z M 8.0111454,10.295707 h 2.2752616 l 0.501511,0.501509 0.714742,0.714744 -0.714742,0.714741 -0.501511,0.501512 H 8.0111454 Z m 5.1997476,1.923847 -0.714742,-0.714741 0.714742,-0.714744 0.501511,-0.494362 h 2.275262 v 3.593962 l -1.608169,1.608168 h -0.667093 v -1.608168 l 0.665901,-0.667093 V 12.721064 H 13.712404 Z M 8.0111454,9.1306766 9.619315,7.521316 h 0.667092 V 9.1306766 L 9.619315,9.7977698 H 8.0111454 Z M 11.29062,10.295707 10.789109,9.7941951 V 7.521316 h 2.421784 V 9.7965789 L 11.999406,11.010448 Z M 13.712404,9.1306766 V 7.521316 h 0.667093 l 1.608169,1.6093606 V 9.7977698 H 14.379497 Z M 9.0915972,6.245502 6.7353309,8.6017672 v 5.8168088 l 2.3562663,2.356268 h 4.1192958 v 1.697512 l 1.692749,-1.697512 2.361031,-2.356268 V 8.6017672 L 14.903642,6.245502 Z"
     fill="#f631f6"
     style="stroke-width:1.19124" />
</svg>
