<?xml version="1.0" encoding="utf-8"?>
<!-- Generator: Adobe Illustrator 26.4.0, SVG Export Plug-In . SVG Version: 6.00 Build 0)  -->
<svg version="1.1" id="Ebene_1" xmlns="http://www.w3.org/2000/svg" xmlns:xlink="http://www.w3.org/1999/xlink" x="0px" y="0px"
	 viewBox="0 0 401.3 100.6" style="enable-background:new 0 0 401.3 100.6;" xml:space="preserve">
<style type="text/css">
	.st0{fill:#F631F6;}
	.st1{fill:url(#SVGID_1_);}
</style>
<g>
	<path class="st0" d="M67.5,0H19.6L0.2,19.4v47.8l19.4,19.4h33.9l0,14l13.9-14l19.4-19.4V19.4L67.5,0z M33.6,10.5h19.9v18.7l-10,10
		l-5.8-5.8l-4.1-4.1V10.5z M10.7,23.7L24,10.5h5.5v13.2L24,29.2H10.7V23.7z M29.5,76.1H24L10.7,62.9v-5.5H24l5.5,5.5V76.1z
		 M10.7,53.3V33.3h18.7l4.1,4.1l5.8,5.8l-5.8,5.8l-4.1,4.1H10.7z M53.5,76.1H33.6V57.4l4.1-4.1l5.8-5.8l5.8,5.8l4.1,4.1V76.1z
		 M76.3,62.9L63.1,76.1h-5.5V62.9l5.5-5.5v-4.1h-5.5l-4.1-4.1l-5.8-5.8l5.8-5.8l4.1-4.1h18.7V62.9z M76.3,29.2H63.1l-5.5-5.5V10.5
		h5.5l13.2,13.2V29.2z"/>
</g>
<g>
	<polygon class="st0" points="368.3,57.4 363.7,52.7 363.7,48 391.9,48 391.9,38.6 363.7,38.6 363.7,33.9 368.4,29.2 391.9,29.2 
		401.3,19.8 363.7,19.8 354.3,29.2 354.3,57.4 363.7,66.8 401.3,66.8 391.9,57.4 	"/>
	<polygon class="st0" points="111.1,29.2 111.1,57.4 120.5,66.8 148.7,66.8 158.1,57.4 158.1,38.6 139.3,38.6 139.3,48 148.7,48 
		148.7,52.7 144,57.4 125.2,57.4 120.5,52.7 120.5,33.9 125.2,29.2 155.7,29.2 165.1,19.8 120.5,19.8 	"/>
	<g>
		<polygon class="st0" points="255.6,29.2 255.6,57.4 265,66.8 293.2,66.8 302.6,57.4 302.6,38.6 283.8,38.6 283.8,48 293.2,48 
			293.2,52.7 288.5,57.4 269.7,57.4 265,52.7 265,33.9 269.7,29.2 300.2,29.2 309.6,19.8 265,19.8 		"/>
	</g>
	<polygon class="st0" points="223.8,57.4 219.2,52.7 219.2,48 247.4,48 247.4,38.6 219.2,38.6 219.2,33.9 223.9,29.2 247.4,29.2 
		256.8,19.8 219.2,19.8 209.8,29.2 209.8,57.4 219.2,66.8 256.8,66.8 247.4,57.4 	"/>
	<polygon class="st0" points="178,57.4 173.3,52.7 173.3,48 201.5,48 201.5,38.6 173.3,38.6 173.3,33.9 178,29.2 201.5,29.2 
		210.9,19.8 173.3,19.8 163.9,29.2 163.9,57.4 173.3,66.8 210.9,66.8 201.5,57.4 	"/>
	<polygon class="st0" points="322.5,57.4 317.8,52.7 317.8,48 346.1,48 346.1,38.6 317.8,38.6 317.8,33.9 322.5,29.2 346.1,29.2 
		355.5,19.8 317.8,19.8 308.4,29.2 308.4,57.4 317.8,66.8 355.5,66.8 346.1,57.4 	"/>
</g>
<g>
	<linearGradient id="SVGID_1_" gradientUnits="userSpaceOnUse" x1="26.0569" y1="22.9014" x2="89.7531" y2="98.2602">
		<stop  offset="0" style="stop-color:#000000;stop-opacity:0"/>
		<stop  offset="1" style="stop-color:#7C1982"/>
	</linearGradient>
	<path class="st1" d="M67.2,0H19.4L0,19.4v47.8l19.4,19.4h33.9l0,14l13.9-14l19.4-19.4V19.4L67.2,0z M33.3,10.5h19.9v18.7l-10,10
		l-5.8-5.8l-4.1-4.1V10.5z M10.5,23.7l13.2-13.2h5.5v13.2l-5.5,5.5H10.5V23.7z M29.2,76.1h-5.5L10.5,62.9v-5.5h13.2l5.5,5.5V76.1z
		 M10.5,53.3V33.3h18.7l4.1,4.1l5.8,5.8l-5.8,5.8l-4.1,4.1H10.5z M53.3,76.1H33.3V57.4l4.1-4.1l5.8-5.8l5.8,5.8l4.1,4.1V76.1z
		 M76.1,62.9L62.9,76.1h-5.5V62.9l5.5-5.5v-4.1h-5.5l-4.1-4.1l-5.8-5.8l5.8-5.8l4.1-4.1h18.7V62.9z M76.1,29.2H62.9l-5.5-5.5V10.5
		h5.5l13.2,13.2V29.2z"/>
</g>
</svg>
