<svg xmlns="http://www.w3.org/2000/svg" width="105.553" height="67.947" viewBox="0 0 105.553 67.947">
  <g id="noun_Quotation_Mark_2822202" data-name="noun_Quotation Mark_2822202" transform="translate(-277.49 -1013.243)">
    <g id="Gruppe_3530" data-name="Gruppe 3530" transform="translate(219 824.773)">
      <path id="Pfad_4071" data-name="Pfad 4071" d="M83.083,188.47a24.606,24.606,0,0,1,23.437,32.058v0a49.276,49.276,0,0,1-35.649,35.886A56.523,56.523,0,0,0,83.8,237.645c-.24.006-.48.01-.72.01a24.593,24.593,0,1,1,0-49.186Zm56.368,0a24.61,24.61,0,0,1,23.438,32.058v0a49.272,49.272,0,0,1-35.647,35.886,56.507,56.507,0,0,0,12.929-18.772c-.24.006-.479.01-.72.01a24.593,24.593,0,1,1,0-49.186Z" fill="#7294ff" />
    </g>
  </g>
</svg>
