<svg xmlns="http://www.w3.org/2000/svg" width="27.767" height="22.552" viewBox="0 0 27.767 22.552">
  <path id="Icon_awesome-twitter" data-name="Icon awesome-twitter" d="M24.913,9c.018.247.018.493.018.74,0,7.523-5.726,16.191-16.191,16.191A16.082,16.082,0,0,1,0,23.378a11.773,11.773,0,0,0,1.374.07,11.4,11.4,0,0,0,7.065-2.431A5.7,5.7,0,0,1,3.118,17.07a7.177,7.177,0,0,0,1.075.088,6.019,6.019,0,0,0,1.5-.194A5.692,5.692,0,0,1,1.128,11.38v-.07a5.731,5.731,0,0,0,2.572.722A5.7,5.7,0,0,1,1.938,4.42a16.176,16.176,0,0,0,11.734,5.955,6.424,6.424,0,0,1-.141-1.3A5.7,5.7,0,0,1,23.38,5.178,11.2,11.2,0,0,0,26.991,3.8a5.675,5.675,0,0,1-2.5,3.136,11.408,11.408,0,0,0,3.277-.881A12.233,12.233,0,0,1,24.913,9Z" transform="translate(0 -3.381)" fill="#c4c4c4"/>
</svg>
