<?xml version="1.0" encoding="UTF-8" standalone="no"?>
<svg
   class="MuiSvgIcon-root MuiSvgIcon-fontSizeMedium MuiBox-root css-1om0hkc"
   focusable="false"
   viewBox="0 0 24 24"
   aria-hidden="true"
   data-testid="AccountBoxIcon"
   version="1.1"
   id="svg294"
   xmlns="http://www.w3.org/2000/svg"
   xmlns:svg="http://www.w3.org/2000/svg">
  <defs
     id="defs298" />
  <path
     id="Pfad_5786"
     data-name="Pfad 5786"
     d="m 6.1277274,14.253509 v -0.982074 h 2.3692522 l 0.982072,0.982074 v 2.367495 h -0.982072 z m 4.0878806,-0.982074 0.738309,-0.738311 1.052221,-1.052221 1.052221,1.052221 0.738308,0.738311 v 3.349569 H 10.217361 Z M 6.1277274,8.962588 h 3.3495701 l 0.7383105,0.738306 1.052221,1.052224 -1.052221,1.05222 -0.7383105,0.738311 H 6.1277274 Z m 7.6549096,2.832228 -1.052221,-1.052219 1.052221,-1.052225 0.738309,-0.727784 h 3.349571 v 5.290921 l -2.367497,2.367495 h -0.982074 v -2.367495 l 0.980319,-0.982074 V 12.533124 H 14.520946 Z M 6.1277274,7.247466 8.4952256,4.8782143 h 0.982072 V 7.247466 L 8.4952256,8.22954 H 6.1277274 Z M 10.95567,8.962588 10.217361,8.224277 V 4.8782143 h 3.565276 V 8.227787 l -1.783514,1.787021 z M 14.520946,7.247466 V 4.8782143 H 15.50302 L 17.870517,7.247466 V 8.22954 H 15.50302 Z M 7.7183356,3 4.2495124,6.4688215 v 8.5633275 l 3.4688231,3.468826 H 13.782637 V 21 l 2.492013,-2.499025 3.475838,-3.468826 V 6.4688215 L 16.27465,3 Z"
     fill="#f631f6"
     style="stroke-width:1.75371" />
</svg>
