<?xml version="1.0" standalone="no"?>
<!DOCTYPE svg PUBLIC "-//W3C//DTD SVG 20010904//EN"
 "http://www.w3.org/TR/2001/REC-SVG-20010904/DTD/svg10.dtd">
<svg version="1.0" xmlns="http://www.w3.org/2000/svg"
 width="1024.000000pt" height="1024.000000pt" viewBox="0 0 1024.000000 1024.000000"
 preserveAspectRatio="xMidYMid meet">
<metadata>
Created by potrace 1.14, written by Peter Selinger 2001-2017
</metadata>
<g transform="translate(0.000000,1024.000000) scale(0.100000,-0.100000)"
fill="#000000" stroke="none">
<path d="M4991 10109 c-42 -13 -109 -54 -142 -88 -37 -38 -69 -87 -62 -95 3
-3 1 -6 -5 -6 -6 0 -14 -15 -18 -32 -4 -18 -9 -36 -10 -40 -1 -5 -2 -17 -3
-27 -1 -17 -63 -59 -186 -126 -11 -6 -64 -37 -118 -68 -54 -31 -102 -57 -107
-57 -5 0 -10 -4 -12 -8 -1 -5 -66 -44 -142 -88 -77 -43 -165 -94 -195 -111
-31 -18 -67 -39 -81 -45 -14 -7 -27 -15 -30 -18 -3 -3 -18 -12 -35 -20 -16 -8
-32 -18 -35 -21 -3 -3 -34 -22 -70 -41 -36 -20 -111 -63 -168 -97 -57 -34
-106 -61 -109 -61 -3 0 -17 -8 -31 -19 -15 -10 -48 -30 -73 -44 -81 -44 -434
-249 -444 -257 -5 -4 -26 -17 -45 -27 -35 -19 -156 -89 -188 -108 -10 -5 -49
-28 -87 -49 -39 -22 -73 -44 -77 -50 -4 -6 -8 -7 -8 -3 0 5 -12 -1 -26 -12
-15 -12 -31 -21 -37 -21 -6 0 -18 -6 -26 -14 -9 -8 -38 -26 -66 -40 -27 -15
-57 -31 -65 -36 -60 -38 -172 -100 -180 -100 -6 0 -10 -4 -10 -9 0 -5 -8 -11
-18 -14 -17 -6 -63 -32 -155 -88 -26 -16 -52 -29 -57 -29 -6 0 -10 -4 -10 -9
0 -5 -10 -13 -22 -17 -13 -4 -55 -26 -95 -50 -39 -24 -76 -44 -82 -44 -6 0
-11 -4 -11 -10 0 -5 -4 -10 -10 -10 -8 0 -184 -99 -230 -130 -8 -6 -22 -13
-30 -17 -8 -4 -52 -28 -97 -55 -82 -48 -99 -55 -105 -40 -1 4 -25 19 -53 32
-42 20 -65 24 -140 24 -106 -1 -156 -20 -234 -90 -69 -62 -105 -145 -104 -244
1 -86 2 -89 30 -151 26 -59 65 -102 125 -142 l48 -30 0 -966 c0 -531 1 -1317
1 -1746 0 -429 2 -787 5 -796 3 -13 12 -15 42 -10 20 4 61 6 90 4 28 -1 53 1
53 5 1 4 2 789 3 1745 1 1848 -1 1753 44 1758 6 1 15 2 20 3 4 0 29 14 55 29
54 32 48 33 132 -23 33 -22 68 -43 77 -46 10 -4 18 -10 18 -15 0 -5 7 -9 15
-9 8 0 15 -4 15 -10 0 -5 4 -10 9 -10 7 0 219 -132 543 -339 127 -81 243 -154
428 -271 107 -67 225 -142 262 -166 36 -24 70 -44 76 -44 5 0 15 14 22 30 7
17 16 30 21 30 5 0 9 5 9 12 0 6 11 26 26 45 14 18 23 37 20 41 -3 5 -33 26
-68 47 -35 21 -106 66 -158 100 -217 140 -282 181 -313 199 -17 10 -34 21 -37
25 -3 3 -21 15 -40 25 -19 11 -71 43 -115 71 -44 29 -192 123 -330 210 -361
228 -387 245 -417 266 -15 10 -32 19 -37 19 -6 0 -6 11 -2 28 10 32 8 135 -3
172 -6 22 -2 28 41 50 26 14 50 27 53 30 3 3 52 32 110 65 58 33 107 62 110
66 3 3 10 8 15 10 12 5 162 90 230 130 28 16 57 33 65 36 8 4 17 9 20 12 3 4
16 12 30 19 14 6 52 28 85 47 33 20 67 39 75 42 8 4 17 10 20 13 3 4 30 20 60
37 30 17 94 53 141 80 48 27 93 53 100 57 8 3 28 15 44 26 17 11 36 23 44 27
8 3 64 35 125 71 61 36 126 73 144 83 17 11 47 27 65 38 69 40 235 135 287
164 30 16 58 35 62 41 4 6 8 8 8 3 0 -7 47 19 60 33 3 3 16 11 30 17 14 7 51
27 82 45 113 65 263 153 280 163 9 5 29 17 45 26 257 147 535 309 549 320 6 5
14 6 17 2 4 -3 7 -1 7 5 0 7 7 12 15 12 8 0 15 4 15 8 0 4 12 13 28 19 15 7
34 17 42 23 27 19 363 210 369 210 3 0 19 -16 34 -35 l28 -35 -22 -63 c-12
-34 -26 -67 -30 -73 -5 -6 -10 -19 -12 -30 -2 -10 -11 -36 -20 -58 -9 -21 -17
-42 -17 -47 0 -5 -4 -17 -10 -27 -5 -9 -39 -96 -75 -192 -36 -96 -68 -182 -72
-190 -3 -8 -7 -17 -7 -20 -2 -7 -26 -71 -37 -95 -5 -11 -61 -157 -124 -325
-64 -168 -118 -312 -122 -320 -3 -8 -7 -17 -8 -20 -1 -3 -5 -13 -8 -22 -15
-40 -20 -54 -23 -63 -1 -5 -9 -26 -18 -46 -8 -20 -12 -39 -9 -43 4 -3 2 -6 -4
-6 -10 0 -20 -22 -29 -65 -3 -10 -8 -22 -12 -25 -4 -3 -8 -12 -10 -20 -1 -8
-9 -31 -17 -50 -27 -68 -87 -225 -90 -235 -1 -5 -6 -19 -10 -30 -29 -70 -68
-172 -70 -180 -2 -10 -13 -39 -38 -100 -6 -16 -12 -32 -13 -35 0 -3 -6 -18
-13 -35 -7 -16 -14 -34 -15 -40 -1 -5 -7 -20 -14 -32 -7 -12 -12 -27 -12 -33
0 -6 -9 -30 -19 -53 -11 -23 -28 -68 -38 -99 -11 -31 -24 -63 -29 -70 -6 -7
-11 -26 -12 -43 -3 -27 1 -31 39 -43 23 -7 60 -22 83 -33 42 -20 57 -24 54
-11 -1 4 4 23 11 42 8 19 14 37 15 40 1 5 89 237 116 305 9 21 22 56 25 65 1
3 5 14 10 25 8 21 15 39 191 500 58 154 124 325 145 381 21 56 44 114 50 130
7 16 13 34 15 39 1 6 52 141 114 300 61 160 113 295 114 300 2 6 7 19 11 30
18 43 137 351 139 360 2 6 6 19 11 30 4 11 23 63 43 115 20 52 40 101 45 108
5 7 25 11 45 9 l35 -2 29 -115 c16 -63 31 -124 34 -135 4 -21 12 -56 20 -90 2
-11 22 -92 44 -180 22 -88 42 -169 44 -180 2 -11 11 -49 21 -85 9 -36 18 -74
19 -85 1 -12 5 -26 9 -32 4 -6 9 -28 12 -49 4 -22 9 -48 13 -59 3 -11 7 -22 7
-25 9 -32 74 -304 80 -330 3 -13 37 -149 50 -200 2 -8 10 -44 19 -80 8 -36 24
-103 36 -150 11 -47 23 -96 26 -110 2 -14 9 -38 14 -55 5 -16 11 -41 14 -55 6
-31 6 -31 56 -230 22 -91 43 -174 45 -185 3 -11 10 -42 16 -69 11 -48 11 -48
-22 -80 -75 -68 -112 -151 -114 -253 -1 -64 -5 -75 -31 -79 -14 -2 -97 -26
-154 -44 -14 -4 -50 -15 -80 -23 -30 -9 -89 -26 -130 -38 -41 -13 -81 -24 -88
-25 -14 -3 -119 -33 -142 -42 -22 -8 -32 -10 -62 -17 -15 -3 -40 -10 -55 -16
-16 -6 -39 -13 -53 -15 -14 -3 -36 -9 -50 -14 -21 -8 -165 -52 -180 -55 -55
-12 -117 -29 -125 -35 -10 -8 -16 -10 -35 -10 -6 0 -5 -10 1 -27 7 -16 19 -57
29 -93 12 -45 21 -64 31 -61 8 1 61 17 119 33 58 17 114 32 125 34 11 2 39 10
62 18 22 8 52 17 65 20 12 3 93 26 178 52 85 25 160 47 165 48 6 1 37 10 70
20 33 10 67 20 75 21 8 2 47 14 85 25 39 12 115 34 170 50 l100 29 35 -27 c19
-15 37 -27 40 -27 3 -1 19 -8 35 -17 17 -8 45 -19 63 -23 34 -7 50 -30 57 -85
2 -14 24 -106 49 -205 25 -99 47 -191 50 -205 3 -14 10 -43 16 -65 6 -22 12
-49 15 -60 2 -11 6 -29 9 -40 8 -30 46 -184 56 -230 5 -22 23 -96 40 -165 33
-130 37 -148 44 -177 5 -23 36 -153 41 -173 2 -8 11 -42 20 -75 9 -33 18 -73
21 -89 5 -43 16 -49 65 -35 24 6 51 13 59 14 33 5 70 18 70 25 0 4 -11 52 -24
106 -14 54 -27 110 -29 124 -3 14 -10 43 -15 65 -28 107 -44 170 -49 194 -6
32 -9 42 -15 61 -8 21 -48 189 -54 225 -3 17 -21 91 -40 165 -19 74 -37 144
-39 155 -2 11 -9 39 -15 63 -24 99 -29 118 -34 142 -3 14 -20 83 -37 154 -36
146 -41 124 39 185 40 30 89 102 104 153 6 21 18 40 27 42 9 3 63 19 120 36
99 30 116 35 171 46 13 3 30 10 37 16 7 6 13 8 13 5 0 -3 21 2 48 10 65 20
384 113 402 118 20 4 134 37 245 70 50 15 95 28 100 30 6 1 17 4 25 7 24 9
102 30 129 35 14 2 29 7 35 11 6 3 16 7 21 9 39 8 56 13 100 27 145 45 219 65
226 61 4 -3 9 -2 11 3 2 7 116 42 182 57 10 2 35 10 55 17 20 7 38 12 41 13 3
0 42 11 88 24 67 19 82 27 77 40 -4 9 -16 50 -27 93 -12 44 -25 75 -32 73 -47
-16 -155 -47 -171 -51 -11 -2 -74 -20 -140 -40 -65 -20 -124 -37 -130 -38 -5
-1 -37 -10 -70 -20 -33 -10 -67 -20 -75 -21 -8 -2 -15 -4 -15 -5 0 -1 -7 -3
-15 -5 -8 -2 -94 -27 -190 -55 -96 -29 -179 -53 -185 -54 -5 -2 -30 -9 -55
-16 -25 -8 -48 -14 -52 -16 -5 -1 -9 -2 -10 -3 -2 -2 -12 -4 -23 -6 -18 -4
-247 -71 -428 -126 -37 -12 -73 -22 -80 -23 -7 -2 -32 -9 -57 -16 -25 -7 -49
-14 -55 -16 -5 -1 -50 -14 -100 -30 -49 -15 -99 -29 -110 -32 -26 -5 -36 -8
-55 -15 -78 -29 -77 -29 -106 21 -53 93 -152 159 -251 169 l-53 6 -16 53 c-8
30 -17 66 -19 81 -2 16 -4 29 -6 31 -1 1 -2 6 -3 11 0 5 -4 12 -8 16 -4 4 -4
13 -1 21 3 8 0 14 -7 14 -6 0 -9 4 -6 8 3 5 -15 89 -40 188 -24 98 -46 188
-48 199 -2 11 -9 40 -16 65 -7 25 -14 53 -16 62 -2 10 -6 27 -9 38 -3 11 -7
30 -10 43 -10 45 -56 234 -71 287 -8 30 -17 70 -20 89 -2 18 -9 42 -15 52 -5
10 -8 19 -5 19 2 0 0 16 -6 36 -5 20 -11 44 -13 53 -11 50 -38 158 -42 171 -3
8 -7 22 -8 30 -1 8 -9 42 -18 75 -9 33 -18 71 -21 85 -3 14 -15 63 -27 110
-19 80 -33 139 -44 185 -2 11 -16 65 -30 120 -15 55 -28 109 -29 120 -2 11 -9
40 -16 65 -14 52 -14 52 -25 105 -4 22 -12 45 -17 52 -5 7 -7 16 -5 21 3 4 2
14 -3 22 -7 11 0 23 23 45 18 17 42 43 54 58 22 28 22 28 55 11 18 -9 35 -20
38 -23 3 -4 16 -12 30 -19 43 -22 121 -66 247 -140 67 -40 126 -72 132 -72 6
0 11 -4 11 -9 0 -5 8 -11 18 -14 9 -4 40 -20 67 -37 28 -16 70 -41 95 -55 25
-14 52 -29 60 -35 8 -5 74 -43 145 -84 72 -40 146 -83 165 -95 19 -11 42 -24
50 -28 8 -4 80 -45 160 -91 247 -143 321 -186 449 -260 68 -40 127 -72 132
-72 5 0 9 -4 9 -10 0 -5 4 -10 9 -10 8 0 334 -185 426 -241 17 -11 36 -22 44
-25 7 -4 85 -49 173 -100 88 -52 161 -94 163 -94 2 0 33 -18 69 -40 36 -22 70
-40 76 -40 5 0 10 -5 10 -11 0 -5 4 -8 9 -4 6 3 14 -3 20 -12 6 -10 11 -14 11
-9 0 5 9 1 20 -9 11 -10 20 -15 20 -11 0 4 10 -2 22 -14 12 -11 27 -20 34 -20
6 0 24 -10 39 -22 33 -25 26 -31 95 79 l39 63 -54 35 c-31 19 -57 35 -60 35
-2 0 -65 36 -140 80 -75 44 -137 80 -139 80 -3 0 -160 91 -206 120 -8 5 -37
21 -65 36 -27 15 -52 29 -55 33 -3 3 -18 13 -35 21 -16 8 -59 33 -95 54 -121
73 -270 156 -280 156 -5 0 -10 5 -10 10 0 6 -4 10 -9 10 -5 0 -39 18 -76 41
-68 41 -101 60 -185 107 -25 14 -57 33 -72 43 -14 11 -29 19 -31 19 -3 0 -57
30 -119 66 -62 37 -126 74 -143 84 -16 9 -75 43 -130 75 -55 32 -120 69 -145
83 -25 13 -53 31 -62 40 -10 8 -18 13 -18 9 0 -6 -157 85 -177 103 -7 6 -16
11 -20 11 -5 1 -55 29 -113 63 -58 34 -112 65 -120 69 -8 4 -24 13 -35 20 -11
7 -58 34 -105 61 -47 26 -98 56 -115 66 -16 10 -70 41 -120 70 -49 28 -96 56
-102 62 -7 6 -13 7 -13 4 0 -4 -6 -1 -14 7 -8 8 -18 34 -21 57 -14 92 -89 189
-182 235 -46 23 -74 29 -138 31 -44 2 -95 -1 -114 -7z"/>
<path d="M9228 8125 c-2 -2 -32 -6 -66 -9 -35 -3 -67 -8 -71 -10 -4 -3 -20 -7
-35 -10 -62 -11 -189 -86 -260 -153 -64 -61 -135 -177 -158 -257 -6 -22 -14
-48 -16 -56 -8 -23 -7 -241 0 -273 17 -69 46 -138 85 -200 l24 -38 -48 -67
c-26 -37 -52 -72 -58 -79 -5 -6 -26 -34 -45 -62 -30 -44 -54 -77 -146 -206
-45 -63 -94 -131 -102 -140 -4 -5 -23 -32 -42 -60 -19 -27 -40 -56 -47 -65
-21 -25 -173 -241 -173 -246 0 -2 -8 -12 -17 -22 -10 -10 -25 -29 -33 -41 -8
-13 -29 -42 -46 -65 -17 -22 -82 -113 -144 -201 -63 -88 -118 -164 -123 -170
-4 -5 -93 -129 -198 -275 -104 -146 -196 -274 -205 -285 -19 -25 -124 -171
-171 -238 -20 -28 -40 -56 -45 -62 -11 -12 -152 -210 -176 -245 -36 -54 -97
-135 -104 -138 -5 -2 -8 -8 -8 -13 0 -5 -7 -17 -17 -28 -12 -15 -21 -17 -40
-10 -38 14 -209 29 -225 19 -2 -1 -21 -3 -43 -5 -71 -7 -205 -61 -264 -106
-23 -19 -24 -19 -60 3 -20 12 -38 25 -41 28 -3 3 -39 28 -80 55 -41 27 -77 51
-80 55 -3 3 -13 10 -22 15 -36 21 -314 210 -326 222 -7 7 -17 13 -22 13 -5 0
-15 6 -22 13 -7 6 -116 81 -243 166 -126 85 -238 161 -248 169 -9 8 -26 20
-37 26 -11 6 -59 38 -107 71 -48 33 -92 62 -97 64 -6 2 -18 12 -28 21 -10 9
-31 23 -46 31 -15 8 -29 17 -32 20 -3 3 -48 34 -100 70 -52 35 -96 67 -98 71
-2 4 -8 8 -13 8 -5 0 -82 50 -169 110 -88 61 -164 110 -169 110 -16 0 -21 30
-10 58 21 50 15 230 -10 310 -70 231 -243 392 -475 441 -84 17 -148 19 -226 6
-25 -4 -50 -8 -57 -9 -7 -1 -16 -5 -19 -9 -4 -4 -13 -7 -21 -7 -18 0 -98 -38
-153 -72 -77 -48 -165 -150 -209 -241 -53 -107 -71 -189 -67 -302 4 -113 20
-173 77 -286 l18 -36 -32 -36 c-18 -20 -45 -52 -62 -73 -98 -120 -130 -158
-145 -174 -8 -9 -27 -31 -42 -50 -15 -19 -37 -47 -50 -61 -13 -15 -36 -44 -53
-65 -16 -20 -35 -42 -40 -48 -9 -10 -82 -98 -115 -139 -8 -11 -20 -24 -25 -31
-6 -6 -64 -76 -129 -156 -66 -80 -126 -152 -135 -160 -9 -8 -28 -31 -42 -50
-15 -19 -35 -45 -45 -57 -11 -12 -32 -38 -49 -59 -16 -20 -35 -42 -40 -48 -6
-6 -53 -63 -105 -126 -52 -63 -97 -117 -100 -120 -3 -3 -25 -30 -50 -60 -25
-30 -53 -64 -63 -75 -10 -11 -37 -45 -60 -75 -23 -30 -49 -61 -57 -70 -8 -9
-33 -37 -55 -64 -22 -27 -47 -57 -57 -68 -9 -10 -31 -38 -50 -61 -18 -23 -45
-54 -60 -71 -16 -16 -28 -32 -28 -35 0 -3 -19 -26 -41 -51 -23 -25 -48 -55
-56 -68 -15 -22 -43 -26 -70 -9 -7 5 -13 6 -13 2 0 -3 -15 1 -32 8 -22 9 -70
13 -143 12 -129 -2 -215 -24 -315 -82 -76 -45 -190 -156 -215 -210 -10 -21
-24 -45 -32 -54 -7 -9 -16 -25 -18 -35 -3 -11 -14 -50 -24 -89 -29 -103 -23
-244 13 -350 15 -44 33 -83 39 -87 7 -4 8 -8 4 -8 -17 0 78 -123 132 -171 60
-53 201 -130 245 -132 14 -1 26 -5 26 -9 0 -4 8 -7 17 -7 10 0 63 -2 117 -5
124 -4 195 11 304 66 58 28 105 62 151 107 64 62 141 175 141 206 0 8 4 16 9
20 8 4 16 33 38 135 1 8 3 47 4 87 1 89 -23 190 -65 277 -30 61 -31 68 -17 84
9 9 34 40 56 67 22 28 44 55 50 61 6 6 27 31 46 54 18 23 41 50 49 59 9 9 33
39 55 66 22 28 42 52 45 55 3 3 37 43 75 90 38 47 76 93 85 102 8 9 20 23 25
30 48 61 92 115 101 123 6 6 42 48 80 95 76 95 91 112 118 143 10 12 35 42 55
67 20 25 38 47 41 50 3 3 48 57 100 120 102 124 107 130 170 205 63 75 70 83
145 175 39 47 78 94 88 105 10 11 35 41 55 68 20 26 40 47 44 47 4 0 8 5 8 11
0 7 8 19 18 28 9 9 46 52 82 96 35 44 69 85 75 91 5 6 28 33 50 60 67 81 85
97 98 86 18 -14 93 -31 160 -36 20 -2 40 -6 43 -9 4 -4 14 -3 23 2 9 5 32 9
51 10 19 2 47 3 62 4 16 1 28 5 28 8 0 4 15 9 33 13 41 8 136 53 164 78 19 18
25 19 57 7 20 -7 36 -16 36 -19 0 -3 18 -16 40 -30 22 -14 40 -28 40 -32 0 -5
5 -8 11 -8 6 0 32 -15 58 -33 25 -19 145 -101 266 -182 121 -82 222 -151 225
-154 3 -3 17 -12 32 -20 15 -8 37 -22 47 -33 11 -10 24 -18 28 -18 4 0 22 -12
38 -26 17 -14 39 -30 50 -35 11 -5 92 -59 180 -119 88 -61 192 -132 230 -157
39 -25 72 -49 73 -54 2 -5 8 -9 13 -9 6 0 15 -5 22 -10 7 -6 37 -27 67 -47 30
-20 134 -91 230 -156 96 -65 208 -140 248 -165 l73 -47 -8 -45 c-4 -25 -8 -91
-8 -148 0 -82 -3 -103 -15 -107 -23 -7 -263 -76 -280 -81 -8 -2 -46 -13 -85
-24 -38 -12 -77 -23 -85 -25 -8 -2 -37 -11 -65 -19 -133 -39 -201 -58 -215
-61 -8 -2 -27 -8 -43 -14 -15 -6 -38 -13 -50 -15 -24 -6 -84 -23 -192 -56 -38
-12 -80 -23 -92 -26 -12 -2 -34 -9 -48 -14 -14 -5 -25 -7 -25 -4 0 4 -6 2 -12
-3 -7 -6 -34 -16 -60 -23 l-47 -12 -51 51 c-45 46 -130 101 -130 85 0 -4 -7
-1 -15 6 -8 7 -22 10 -30 6 -8 -3 -15 -2 -15 3 0 4 -15 7 -33 6 -54 -5 -44
-26 -128 280 -6 22 -15 51 -19 65 -7 21 -16 56 -25 95 -2 6 -22 75 -45 155
-23 80 -43 152 -45 160 -2 8 -24 89 -50 180 -26 91 -48 172 -50 180 -2 8 -8
28 -14 43 -6 15 -12 41 -13 57 -1 17 -6 30 -11 30 -5 0 -7 6 -4 14 3 8 3 17
-1 21 -4 4 -7 10 -8 13 -3 23 -63 232 -70 243 -3 5 -11 6 -17 2 -7 -4 -18 -9
-24 -10 -31 -7 -48 -12 -48 -13 0 -2 -20 -7 -60 -15 -16 -3 -31 -7 -32 -9 -1
-1 9 -42 23 -91 14 -50 29 -106 34 -125 4 -19 19 -72 33 -117 13 -46 23 -83
20 -83 -2 0 1 -8 6 -18 6 -11 12 -30 15 -43 3 -13 12 -46 19 -74 8 -27 27 -95
42 -149 14 -55 33 -118 40 -140 8 -23 16 -52 19 -66 6 -27 31 -118 66 -240 35
-124 62 -220 75 -267 2 -10 11 -43 19 -73 20 -72 21 -69 -19 -113 -40 -44 -82
-127 -90 -177 -3 -19 -7 -35 -8 -37 -4 -4 -130 -17 -169 -17 -21 -1 -38 -3
-38 -6 0 -3 -12 -5 -27 -6 -35 -1 -148 -12 -148 -14 0 -2 -60 -9 -125 -14 -30
-3 -55 -5 -55 -6 0 -1 -16 -4 -35 -5 -32 -4 -62 -7 -190 -20 -25 -2 -63 -7
-85 -9 -22 -3 -65 -8 -95 -11 -30 -3 -69 -7 -86 -10 -18 -2 -63 -7 -100 -10
-38 -4 -82 -9 -99 -11 -124 -16 -199 -25 -255 -30 -93 -8 -118 -11 -180 -19
-30 -4 -77 -9 -105 -11 -27 -1 -50 -4 -50 -4 0 -2 -57 -9 -200 -25 -16 -1 -43
-3 -58 -4 l-28 -1 5 -72 c2 -40 5 -85 5 -99 1 -25 2 -26 59 -18 31 4 86 10
122 14 36 3 81 8 100 10 19 3 59 7 90 10 30 3 75 8 100 12 25 3 59 7 75 8 17
2 57 6 90 10 33 4 76 8 95 10 19 2 35 4 35 5 0 1 20 3 45 5 25 1 70 6 100 9
100 12 124 15 180 21 30 3 64 7 75 9 11 2 58 7 105 11 47 4 87 8 90 10 3 2 37
6 75 9 39 3 79 8 90 10 11 2 56 7 100 11 44 4 89 9 100 11 18 4 105 12 190 19
17 2 30 4 30 5 0 1 20 4 45 6 73 5 153 15 161 20 4 2 20 -13 36 -35 38 -52
116 -114 145 -116 3 0 10 -3 14 -8 4 -4 19 -7 33 -7 14 0 31 -4 37 -8 11 -6
49 -121 56 -167 2 -11 6 -24 9 -30 7 -11 19 -57 25 -90 2 -11 19 -74 39 -140
20 -66 51 -176 69 -245 19 -69 51 -183 71 -255 20 -71 41 -143 45 -160 4 -16
27 -97 50 -180 23 -82 49 -175 57 -205 9 -30 22 -77 30 -105 8 -27 16 -61 19
-74 3 -14 7 -28 10 -33 3 -4 7 -16 9 -25 9 -46 29 -120 36 -138 7 -17 27 -88
44 -155 2 -8 4 -15 5 -15 1 0 3 -13 5 -29 1 -22 -7 -39 -36 -69 -22 -22 -39
-43 -39 -48 0 -18 -27 -7 -139 58 -156 91 -192 111 -221 126 -14 6 -27 14 -30
17 -6 7 -72 45 -155 91 -33 17 -71 40 -85 49 -14 9 -32 20 -40 23 -8 4 -33 18
-55 32 -22 14 -47 28 -55 32 -8 4 -43 24 -78 45 -34 21 -65 38 -67 38 -3 0
-22 11 -43 24 -29 18 -549 320 -717 416 -17 9 -86 49 -153 89 -68 39 -127 71
-132 71 -6 0 -10 5 -10 10 0 6 -4 10 -10 10 -5 0 -33 14 -62 31 -63 37 -113
67 -148 86 -14 8 -43 25 -65 39 -22 14 -53 31 -70 40 -16 8 -43 23 -60 34 -16
10 -41 25 -55 33 -83 46 -129 73 -162 94 -21 12 -42 23 -48 23 -5 0 -10 5 -10
12 0 6 -3 8 -7 5 -3 -4 -13 -1 -22 6 -17 14 -113 71 -216 127 -33 18 -69 39
-80 46 -21 13 -37 4 -43 -25 -1 -7 -9 -20 -17 -28 -8 -8 -15 -18 -15 -23 0 -5
-6 -15 -13 -22 -7 -7 -18 -22 -24 -33 -12 -21 -11 -22 87 -77 25 -14 131 -74
235 -135 105 -60 201 -116 215 -124 14 -8 28 -18 32 -24 5 -7 8 -7 8 0 0 6 3
6 8 0 4 -6 18 -16 32 -23 14 -6 32 -16 40 -22 8 -5 83 -49 165 -96 83 -48 166
-96 185 -107 19 -11 55 -31 80 -45 25 -13 50 -28 55 -32 6 -5 39 -25 75 -45
102 -58 133 -76 165 -96 17 -11 41 -24 55 -31 14 -7 28 -17 32 -23 5 -6 8 -6
8 0 0 6 5 3 10 -5 5 -8 13 -15 17 -15 8 -1 133 -71 195 -111 21 -13 39 -24 42
-24 2 0 108 -61 235 -135 127 -74 234 -135 237 -135 3 0 18 -8 32 -19 15 -10
104 -62 197 -116 94 -53 186 -107 205 -119 19 -11 38 -20 43 -18 4 1 7 -2 7
-6 0 -5 19 -19 43 -31 52 -28 111 -61 157 -89 19 -12 42 -25 50 -29 8 -4 35
-19 61 -34 39 -24 47 -35 58 -78 22 -88 90 -175 166 -214 204 -104 438 -4 499
214 10 35 23 59 33 63 10 3 32 14 48 24 61 39 101 62 120 72 11 5 43 23 70 39
28 17 68 40 90 52 22 12 47 27 55 34 8 8 17 13 20 12 3 0 16 6 30 15 40 25
403 234 420 241 8 4 27 15 42 25 50 32 211 122 220 122 4 0 8 5 8 10 0 6 4 10
10 10 5 0 50 25 101 55 50 30 93 55 95 55 2 0 44 25 95 55 50 30 93 55 95 55
1 0 118 68 259 150 141 83 259 150 261 150 2 0 37 20 77 45 41 25 79 45 85 45
6 0 12 4 14 8 2 4 30 23 63 41 113 64 124 70 162 94 21 13 45 26 53 30 8 4 32
17 52 29 83 51 333 193 345 196 7 2 13 7 13 12 0 4 8 10 18 13 17 6 38 18 167
94 39 22 86 50 105 61 19 11 76 43 125 72 50 29 108 62 131 75 22 12 50 29 62
36 18 11 25 11 40 1 34 -24 88 -43 130 -46 12 0 22 -3 22 -6 0 -10 90 -1 145
14 75 20 166 101 204 181 31 64 37 194 13 258 -30 80 -96 156 -167 192 -20 11
-20 17 -25 1785 l-5 1775 -78 -1 c-46 0 -83 -6 -90 -13 -9 -9 -12 -417 -13
-1754 -1 -958 -2 -1747 -3 -1752 0 -6 -13 -12 -27 -13 -36 -3 -117 -48 -157
-89 l-34 -33 -59 26 c-32 14 -86 36 -119 49 -33 13 -78 31 -100 41 -22 10 -42
18 -45 19 -3 1 -14 5 -25 10 -11 4 -47 19 -80 32 -33 13 -69 28 -80 33 -11 5
-45 19 -75 31 -30 11 -66 26 -80 32 -14 6 -27 11 -30 12 -3 1 -16 6 -30 12
-14 6 -104 43 -200 82 -96 40 -189 78 -207 86 -17 8 -34 15 -38 15 -3 0 -25 9
-48 19 -61 28 -246 101 -255 101 -4 0 -14 -17 -21 -37 -8 -21 -24 -59 -36 -85
l-22 -46 26 -12 c69 -32 93 -42 186 -79 55 -22 118 -47 140 -57 22 -10 42 -18
45 -19 10 -3 46 -17 65 -26 11 -4 72 -29 135 -55 63 -25 120 -49 125 -52 6 -4
15 -7 20 -7 6 0 26 -8 45 -17 19 -9 98 -42 175 -73 77 -31 149 -60 160 -65 51
-23 201 -85 205 -85 6 0 143 -57 149 -62 2 -1 5 -20 6 -40 2 -21 6 -57 10 -79
l7 -41 -118 -68 c-66 -37 -137 -78 -159 -90 -22 -12 -65 -37 -95 -55 -30 -18
-73 -43 -95 -55 -22 -13 -107 -62 -189 -109 -82 -47 -152 -86 -157 -86 -5 0
-9 -4 -9 -9 0 -5 -9 -13 -21 -16 -12 -4 -73 -38 -136 -76 -64 -38 -117 -69
-118 -69 -1 0 -85 -48 -186 -106 -101 -59 -199 -115 -217 -125 -138 -79 -184
-106 -314 -182 -81 -48 -152 -87 -158 -87 -5 0 -10 -4 -10 -10 0 -5 -4 -10 -9
-10 -5 0 -42 -19 -83 -43 -40 -24 -93 -55 -118 -69 -25 -14 -73 -42 -107 -62
-34 -20 -66 -36 -71 -36 -6 0 -12 -4 -14 -8 -1 -4 -82 -52 -178 -107 -96 -55
-176 -103 -178 -107 -2 -4 -8 -8 -14 -8 -9 0 -158 -85 -321 -182 -26 -15 -51
-28 -56 -28 -5 0 -14 -7 -21 -15 -7 -8 -16 -13 -20 -10 -5 3 -10 2 -12 -3 -4
-10 -146 -92 -159 -92 -5 0 -9 -4 -9 -10 0 -5 -5 -10 -11 -10 -6 0 -23 -9 -39
-20 -15 -11 -39 -24 -53 -29 -23 -9 -28 -6 -46 25 -23 39 -26 26 33 156 14 31
26 59 26 62 0 4 9 25 19 49 11 23 59 134 106 247 88 208 104 245 145 335 13
28 23 56 23 63 0 6 4 12 9 12 4 0 8 6 8 14 0 12 23 69 70 171 10 22 48 112 85
200 37 88 73 174 80 190 8 17 26 59 41 95 14 36 34 83 44 105 10 22 58 132
105 245 48 113 98 230 112 260 31 68 34 102 10 105 -9 2 -47 17 -83 34 l-65
30 -14 -32 c-28 -60 -246 -572 -249 -582 -5 -16 -24 -63 -52 -123 -15 -31 -27
-63 -27 -69 0 -7 -4 -13 -9 -13 -4 0 -8 -5 -8 -11 0 -12 -134 -333 -156 -371
-8 -15 -15 -31 -15 -35 0 -5 -6 -21 -14 -38 -7 -16 -50 -118 -95 -225 -45
-107 -86 -203 -91 -212 -5 -10 -27 -62 -49 -115 -21 -54 -45 -111 -53 -128 -8
-16 -38 -87 -68 -158 l-54 -127 -55 6 c-57 7 -84 20 -74 36 3 5 0 15 -6 23 -7
8 -10 15 -6 15 3 0 1 12 -5 28 -6 15 -12 34 -14 42 -2 8 -9 35 -16 60 -7 25
-13 50 -15 55 -1 6 -15 57 -32 115 -16 58 -33 119 -38 135 -4 17 -8 32 -9 35
-1 3 -7 23 -13 45 -19 65 -82 290 -87 311 -2 10 -29 107 -60 214 -30 107 -58
204 -60 215 -11 48 -16 64 -36 130 -11 39 -23 81 -26 95 -2 14 -7 32 -10 40
-3 8 -7 20 -9 25 -1 6 -19 69 -39 140 -20 72 -39 139 -41 150 -12 48 -28 101
-35 110 -4 6 14 25 42 45 69 49 115 120 137 210 l18 74 95 29 c52 15 101 30
109 32 8 2 15 4 15 5 0 1 9 3 20 5 11 1 59 14 108 29 189 57 266 79 350 102
48 13 172 49 275 80 103 31 198 58 211 60 13 3 32 9 43 15 10 5 18 7 18 3 0
-3 7 -1 15 6 8 7 15 10 15 6 0 -3 11 -1 24 4 22 8 27 4 59 -44 81 -121 190
-204 333 -251 83 -28 106 -31 192 -29 53 1 106 4 117 7 153 37 233 82 333 186
72 76 72 77 110 153 40 82 73 208 59 225 -6 9 -6 13 1 13 11 0 9 120 -1 138
-3 4 -8 27 -12 51 -6 42 -60 165 -90 206 -13 19 -9 27 53 112 37 50 74 101 82
113 16 23 84 118 97 135 4 6 24 33 42 60 19 28 38 52 41 55 3 3 14 18 24 35
11 16 23 34 28 40 10 12 108 146 128 176 8 12 21 27 28 35 6 7 12 15 12 19 0
6 48 73 60 85 3 3 13 16 22 30 9 14 46 66 82 115 36 50 71 98 78 108 7 10 29
40 48 67 19 26 44 60 55 76 11 15 36 49 55 76 19 26 60 82 90 125 30 43 60 85
67 93 7 8 39 53 72 100 34 47 67 94 75 105 8 11 72 99 141 195 69 96 134 185
143 197 9 13 107 149 217 303 110 153 206 282 213 285 8 3 19 2 25 -2 7 -4 18
-8 27 -9 8 -1 29 -4 45 -8 36 -8 139 -8 180 0 17 3 39 6 50 8 11 2 31 8 45 13
14 6 28 9 33 6 4 -2 7 1 7 8 0 7 3 9 6 6 15 -14 152 72 215 135 34 34 123 158
113 158 -4 0 1 9 11 20 10 11 15 20 12 20 -3 0 1 17 10 37 8 21 17 47 19 58 2
11 6 31 9 45 11 51 5 193 -11 258 -26 105 -93 223 -168 296 -51 50 -189 137
-226 141 -3 0 -11 4 -18 9 -7 4 -16 5 -19 2 -3 -3 -11 -1 -18 4 -6 5 -38 12
-71 14 -32 3 -59 5 -59 6 0 3 -34 8 -37 5z"/>
</g>
</svg>
